<svg xmlns="http://www.w3.org/2000/svg" width="12" height="12" viewBox="0 0 12 12">
    <path fill="#FFF" d="M5.991 0C2.688 0 0 2.688 0 5.991c0 3.304 2.688 5.992 5.991 5.992 3.304 0 5.992-2.688 5.992-5.992C11.983 2.688 9.295 0 5.99 0zm.39 9.546c-.285.047-.851.166-1.139.19-.243.02-.473-.12-.613-.32s-.174-.455-.09-.685L5.67 5.617H4.493c0-.65.486-1.126 1.109-1.31.297-.087.85-.206 1.138-.188.173.011.473.12.613.32s.174.455.091.685L6.312 8.238h1.177c0 .648-.469 1.201-1.108 1.308zm.36-5.801c-.414 0-.75-.336-.75-.75 0-.413.336-.748.75-.748.413 0 .748.335.748.749 0 .413-.335.749-.749.749z"/>
</svg>
