<svg xmlns="http://www.w3.org/2000/svg" width="9" height="12" viewBox="0 0 9 12">
    <path fill="#FFF" d="M4.5 0c-1.65 0-3 1.295-3 2.88v1.586C.581 5.257 0 6.402 0 7.68 0 10.066 2.014 12 4.5 12S9 10.066 9 7.68c0-1.278-.581-2.423-1.5-3.214V2.88C7.5 1.356 6.242.128 4.678.035 4.62.013 4.56 0 4.5 0zm0 .96c1.11 0 2 .854 2 1.92v.934c-.603-.288-1.28-.454-2-.454s-1.397.166-2 .454V2.88c0-1.066.89-1.92 2-1.92zm0 5.76c.553 0 1 .43 1 .96 0 .354-.202.66-.5.827v.613c0 .265-.224.48-.5.48S4 9.385 4 9.12v-.613c-.297-.166-.5-.472-.5-.827 0-.53.447-.96 1-.96z"/>
</svg>
