<svg xmlns="http://www.w3.org/2000/svg" width="12" height="12"><path fill="#FFF" d="M5.991 0A5.998 5.998 0 000 5.991a5.999 5.999 0 005.991 5.992 5.999 5.999 0 005.992-5.992A5.999 5.999 0 005.99 0zm.39 9.546c-.285.047-.851.166-1.139.19-.243.02-.473-.12-.613-.32s-.174-.455-.09-.685L5.67 5.617H4.493c0-.65.486-1.126 1.109-1.31.297-.087.85-.206 1.138-.188.173.011.473.12.613.32s.174.455.091.685L6.312 8.238h1.177c0 .648-.469 1.201-1.108 1.308zm.36-5.801a.75.75 0 11.748-.749.75.75 0 01-.749.749z"/></svg>